{
  "accessors": [
    {
      "bufferView": 2,
      "componentType": 5126,
      "count": 16001,
      "max": [
        52.46551513671875,
        6.077254772186279,
        12.599836349487305
      ],
      "min": [
        -0.38389062881469727,
        -0.5119361877441406,
        -3.2117912769317627
      ],
      "type": "VEC3"
    },
    {
      "bufferView": 2,
      "byteOffset": 192012,
      "componentType": 5126,
      "count": 16001,
      "max": [
        0.9996936321258545,
        0.9999959468841553,
        0.9999643564224243
      ],
      "min": [
        -0.9997806549072266,
        -0.9999948740005493,
        -0.99993896484375
      ],
      "type": "VEC3"
    },
    {
      "bufferView": 1,
      "componentType": 5126,
      "count": 16001,
      "max": [
        0.8750001192092896,
        1.0000001192092896
      ],
      "min": [
        0.1250000149011612,
        0.0
      ],
      "type": "VEC2"
    },
    {
      "bufferView": 0,
      "componentType": 5125,
      "count": 77520,
      "type": "SCALAR"
    }
  ],
  "asset": {
    "extras": {
      "author": "Skache (https://sketchfab.com/skache)",
      "license": "CC-BY-4.0 (http://creativecommons.org/licenses/by/4.0/)",
      "source": "https://sketchfab.com/3d-models/charnia-ediacaran-biota-47506490c6184c4c85de65f2cb9fe31a",
      "title": "Charnia - Ediacaran Biota"
    },
    "generator": "Sketchfab-12.68.0",
    "version": "2.0"
  },
  "bufferViews": [
    {
      "buffer": 0,
      "byteLength": 310080,
      "name": "floatBufferViews",
      "target": 34963
    },
    {
      "buffer": 0,
      "byteLength": 128008,
      "byteOffset": 310080,
      "byteStride": 8,
      "name": "floatBufferViews",
      "target": 34962
    },
    {
      "buffer": 0,
      "byteLength": 384024,
      "byteOffset": 438088,
      "byteStride": 12,
      "name": "floatBufferViews",
      "target": 34962
    }
  ],
  "buffers": [
    {
      "byteLength": 822112,
      "uri": "scene.bin"
    }
  ],
  "images": [
    {
      "uri": "textures/Scene_-_Root_baseColor.png"
    },
    {
      "uri": "textures/Scene_-_Root_metallicRoughness.png"
    }
  ],
  "materials": [
    {
      "doubleSided": true,
      "name": "Scene_-_Root",
      "pbrMetallicRoughness": {
        "baseColorTexture": {
          "index": 0
        },
        "metallicRoughnessTexture": {
          "index": 1
        }
      }
    }
  ],
  "meshes": [
    {
      "name": "Cube.033__0",
      "primitives": [
        {
          "attributes": {
            "NORMAL": 1,
            "POSITION": 0,
            "TEXCOORD_0": 2
          },
          "indices": 3,
          "material": 0,
          "mode": 4
        }
      ]
    }
  ],
  "nodes": [
    {
      "children": [
        1
      ],
      "matrix": [
        0.05957184359431267,
        0.0,
        0.0,
        0.0,
        0.0,
        1.3227606475554913e-17,
        -0.05957184359431267,
        0.0,
        0.0,
        0.05957184359431267,
        1.3227606475554913e-17,
        0.0,
        0.0,
        0.0,
        0.0,
        1.0
      ],
      "name": "Sketchfab_model"
    },
    {
      "children": [
        2
      ],
      "matrix": [
        0.009999999776482582,
        0.0,
        0.0,
        0.0,
        0.0,
        0.0,
        0.009999999776482582,
        0.0,
        0.0,
        -0.009999999776482582,
        0.0,
        0.0,
        0.0,
        0.0,
        0.0,
        1.0
      ],
      "name": "Charnia.fbx"
    },
    {
      "children": [
        3
      ],
      "name": "RootNode"
    },
    {
      "children": [
        4
      ],
      "matrix": [
        1.5900543772707565,
        8.947954814799951,
        0.33705122560211936,
        0.0,
        -0.06898597223723353,
        0.2322495882275173,
        -5.840261730462774,
        0.0,
        -8.953655407823279,
        1.5847097407007884,
        0.168780930310402,
        0.0,
        -366.4736633300781,
        87.91279602050781,
        176.02304077148438,
        1.0
      ],
      "name": "Cube.033"
    },
    {
      "mesh": 0,
      "name": "Cube.033__0"
    }
  ],
  "samplers": [
    {
      "magFilter": 9729,
      "minFilter": 9987,
      "wrapS": 10497,
      "wrapT": 10497
    }
  ],
  "scene": 0,
  "scenes": [
    {
      "name": "Sketchfab_Scene",
      "nodes": [
        0
      ]
    }
  ],
  "textures": [
    {
      "sampler": 0,
      "source": 0
    },
    {
      "sampler": 0,
      "source": 1
    }
  ]
}
