{
  "accessors": [
    {
      "bufferView": 2,
      "componentType": 5126,
      "count": 2035,
      "max": [
        50.17192077636719,
        40.2686767578125,
        103.08422088623047
      ],
      "min": [
        -32.09638595581055,
        -35.55195617675781,
        -5.0
      ],
      "type": "VEC3"
    },
    {
      "bufferView": 2,
      "byteOffset": 24420,
      "componentType": 5126,
      "count": 2035,
      "max": [
        0.9994475841522217,
        0.9996180534362793,
        0.9999997615814209
      ],
      "min": [
        -0.9996410608291626,
        -0.999259352684021,
        -0.9986580610275269
      ],
      "type": "VEC3"
    },
    {
      "bufferView": 1,
      "componentType": 5126,
      "count": 2035,
      "max": [
        0.9784209132194519,
        0.9896281361579895
      ],
      "min": [
        0.017878375947475433,
        0.00012098925071768463
      ],
      "type": "VEC2"
    },
    {
      "bufferView": 1,
      "byteOffset": 16280,
      "componentType": 5126,
      "count": 2035,
      "max": [
        0.9784209132194519,
        0.9896281361579895
      ],
      "min": [
        0.017878375947475433,
        0.00012098925071768463
      ],
      "type": "VEC2"
    },
    {
      "bufferView": 0,
      "componentType": 5125,
      "count": 10197,
      "type": "SCALAR"
    },
    {
      "bufferView": 2,
      "byteOffset": 48840,
      "componentType": 5126,
      "count": 12051,
      "max": [
        40.6763916015625,
        28.428264617919922,
        33.3746337890625
      ],
      "min": [
        -17.769193649291992,
        -47.174129486083984,
        -5.0
      ],
      "type": "VEC3"
    },
    {
      "bufferView": 2,
      "byteOffset": 193452,
      "componentType": 5126,
      "count": 12051,
      "max": [
        1.0,
        1.0,
        1.0
      ],
      "min": [
        -1.0,
        -1.0,
        -1.0
      ],
      "type": "VEC3"
    },
    {
      "bufferView": 1,
      "byteOffset": 32560,
      "componentType": 5126,
      "count": 12051,
      "max": [
        0.90775465965271,
        0.8496450185775757
      ],
      "min": [
        0.138714998960495,
        0.07669979333877563
      ],
      "type": "VEC2"
    },
    {
      "bufferView": 0,
      "byteOffset": 40788,
      "componentType": 5125,
      "count": 29736,
      "type": "SCALAR"
    },
    {
      "bufferView": 2,
      "byteOffset": 338064,
      "componentType": 5126,
      "count": 464,
      "max": [
        104.40737915039063,
        81.39799499511719,
        93.65838623046875
      ],
      "min": [
        -60.30376052856445,
        -78.43853759765625,
        41.27457046508789
      ],
      "type": "VEC3"
    },
    {
      "bufferView": 2,
      "byteOffset": 343632,
      "componentType": 5126,
      "count": 464,
      "max": [
        0.5198540091514587,
        0.7430505156517029,
        1.0
      ],
      "min": [
        -0.4974398910999298,
        -0.3520527780056,
        -1.0
      ],
      "type": "VEC3"
    },
    {
      "bufferView": 1,
      "byteOffset": 128968,
      "componentType": 5126,
      "count": 464,
      "max": [
        1.0,
        1.0
      ],
      "min": [
        0.0,
        0.0
      ],
      "type": "VEC2"
    },
    {
      "bufferView": 0,
      "byteOffset": 159732,
      "componentType": 5125,
      "count": 1302,
      "type": "SCALAR"
    },
    {
      "bufferView": 2,
      "byteOffset": 349200,
      "componentType": 5126,
      "count": 144,
      "max": [
        36.85972595214844,
        24.767070770263672,
        29.79613494873047
      ],
      "min": [
        -10.689844131469727,
        -34.331512451171875,
        4.867881774902344
      ],
      "type": "VEC3"
    },
    {
      "bufferView": 2,
      "byteOffset": 350928,
      "componentType": 5126,
      "count": 144,
      "max": [
        1.0,
        1.0,
        1.0
      ],
      "min": [
        -1.0,
        -1.0,
        -1.0
      ],
      "type": "VEC3"
    },
    {
      "bufferView": 1,
      "byteOffset": 132680,
      "componentType": 5126,
      "count": 144,
      "max": [
        0.0,
        0.0
      ],
      "min": [
        0.0,
        0.0
      ],
      "type": "VEC2"
    },
    {
      "bufferView": 0,
      "byteOffset": 164940,
      "componentType": 5125,
      "count": 240,
      "type": "SCALAR"
    }
  ],
  "asset": {
    "extras": {
      "author": "SunderMind (https://sketchfab.com/SunderMind)",
      "license": "CC-BY-4.0 (http://creativecommons.org/licenses/by/4.0/)",
      "source": "https://sketchfab.com/3d-models/elf-tree-village-f18b9ed3acf34488b23cb80a67f9221c",
      "title": "Elf tree village"
    },
    "generator": "Sketchfab-12.67.0",
    "version": "2.0"
  },
  "bufferViews": [
    {
      "buffer": 0,
      "byteLength": 165900,
      "name": "floatBufferViews",
      "target": 34963
    },
    {
      "buffer": 0,
      "byteLength": 133832,
      "byteOffset": 165900,
      "byteStride": 8,
      "name": "floatBufferViews",
      "target": 34962
    },
    {
      "buffer": 0,
      "byteLength": 352656,
      "byteOffset": 299732,
      "byteStride": 12,
      "name": "floatBufferViews",
      "target": 34962
    }
  ],
  "buffers": [
    {
      "byteLength": 652388,
      "uri": "scene.bin"
    }
  ],
  "images": [
    {
      "uri": "textures/Tree_of_life_baseColor.png"
    },
    {
      "uri": "textures/Tree_of_life_emissive.png"
    },
    {
      "uri": "textures/Elf_village_baseColor.png"
    },
    {
      "uri": "textures/Tree_of_life_leaves_baseColor.png"
    },
    {
      "uri": "textures/Tree_of_life_leaves_emissive.png"
    }
  ],
  "materials": [
    {
      "doubleSided": true,
      "emissiveFactor": [
        1.0,
        1.0,
        1.0
      ],
      "emissiveTexture": {
        "index": 1
      },
      "name": "Tree_of_life",
      "pbrMetallicRoughness": {
        "baseColorTexture": {
          "index": 0
        },
        "metallicFactor": 0.0,
        "roughnessFactor": 0.8211145618
      }
    },
    {
      "doubleSided": true,
      "name": "Elf_village",
      "pbrMetallicRoughness": {
        "baseColorTexture": {
          "index": 2
        },
        "metallicFactor": 0.0,
        "roughnessFactor": 0.8211145618
      }
    },
    {
      "alphaMode": "BLEND",
      "emissiveFactor": [
        1.0,
        1.0,
        1.0
      ],
      "emissiveTexture": {
        "index": 4
      },
      "name": "Tree_of_life_leaves",
      "pbrMetallicRoughness": {
        "baseColorTexture": {
          "index": 3
        },
        "metallicFactor": 0.0,
        "roughnessFactor": 0.8040408206
      }
    },
    {
      "alphaMode": "BLEND",
      "doubleSided": true,
      "name": "Elf_village_window",
      "pbrMetallicRoughness": {
        "baseColorFactor": [
          0.28032799999999997,
          0.7324670000000002,
          0.7999999999999999,
          0.2580625057220459
        ],
        "metallicFactor": 0.0,
        "roughnessFactor": 0.8566192670231421
      }
    }
  ],
  "meshes": [
    {
      "name": "Tree of life_Tree of life_0",
      "primitives": [
        {
          "attributes": {
            "NORMAL": 1,
            "POSITION": 0,
            "TEXCOORD_0": 2,
            "TEXCOORD_1": 3
          },
          "indices": 4,
          "material": 0,
          "mode": 4
        }
      ]
    },
    {
      "name": "Elf village_Elf village_0",
      "primitives": [
        {
          "attributes": {
            "NORMAL": 6,
            "POSITION": 5,
            "TEXCOORD_0": 7
          },
          "indices": 8,
          "material": 1,
          "mode": 4
        }
      ]
    },
    {
      "name": "Tree of life leaves_Tree of life leaves_0",
      "primitives": [
        {
          "attributes": {
            "NORMAL": 10,
            "POSITION": 9,
            "TEXCOORD_0": 11
          },
          "indices": 12,
          "material": 2,
          "mode": 4
        }
      ]
    },
    {
      "name": "Elf village window_Elf village window_0",
      "primitives": [
        {
          "attributes": {
            "NORMAL": 14,
            "POSITION": 13,
            "TEXCOORD_0": 15
          },
          "indices": 16,
          "material": 3,
          "mode": 4
        }
      ]
    }
  ],
  "nodes": [
    {
      "children": [
        1
      ],
      "matrix": [
        0.0002467595913913101,
        0.0,
        0.0,
        0.0,
        0.0,
        5.479163598194561e-20,
        -0.0002467595913913101,
        0.0,
        0.0,
        0.0002467595913913101,
        5.479163598194561e-20,
        0.0,
        0.0,
        0.0,
        0.0,
        1.0
      ],
      "name": "Sketchfab_model"
    },
    {
      "children": [
        2
      ],
      "matrix": [
        1.0,
        0.0,
        0.0,
        0.0,
        0.0,
        0.0,
        1.0,
        0.0,
        0.0,
        -1.0,
        0.0,
        0.0,
        0.0,
        0.0,
        0.0,
        1.0
      ],
      "name": "3c917c77ae4e4cc399e3a3eef2662556.fbx"
    },
    {
      "children": [
        3,
        5,
        7,
        9
      ],
      "name": "RootNode"
    },
    {
      "children": [
        4
      ],
      "matrix": [
        100.0,
        0.0,
        0.0,
        0.0,
        0.0,
        -1.629206793918314e-05,
        -99.99999999999868,
        0.0,
        0.0,
        99.99999999999868,
        -1.629206793918314e-05,
        0.0,
        0.0,
        0.0,
        0.0,
        1.0
      ],
      "name": "Tree of life"
    },
    {
      "mesh": 0,
      "name": "Tree of life_Tree of life_0"
    },
    {
      "children": [
        6
      ],
      "matrix": [
        100.0,
        0.0,
        0.0,
        0.0,
        0.0,
        -1.629206793918314e-05,
        -99.99999999999868,
        0.0,
        0.0,
        99.99999999999868,
        -1.629206793918314e-05,
        0.0,
        0.0,
        0.0,
        0.0,
        1.0
      ],
      "name": "Elf village"
    },
    {
      "mesh": 1,
      "name": "Elf village_Elf village_0"
    },
    {
      "children": [
        8
      ],
      "matrix": [
        100.0,
        0.0,
        0.0,
        0.0,
        0.0,
        -1.629206793918314e-05,
        -99.99999999999868,
        0.0,
        0.0,
        99.99999999999868,
        -1.629206793918314e-05,
        0.0,
        0.0,
        0.0,
        0.0,
        1.0
      ],
      "name": "Tree of life leaves"
    },
    {
      "mesh": 2,
      "name": "Tree of life leaves_Tree of life leaves_0"
    },
    {
      "children": [
        10
      ],
      "matrix": [
        100.0,
        0.0,
        0.0,
        0.0,
        0.0,
        -1.629206793918314e-05,
        -99.99999999999868,
        0.0,
        0.0,
        99.99999999999868,
        -1.629206793918314e-05,
        0.0,
        0.0,
        0.0,
        0.0,
        1.0
      ],
      "name": "Elf village window"
    },
    {
      "mesh": 3,
      "name": "Elf village window_Elf village window_0"
    }
  ],
  "samplers": [
    {
      "magFilter": 9729,
      "minFilter": 9987,
      "wrapS": 10497,
      "wrapT": 10497
    }
  ],
  "scene": 0,
  "scenes": [
    {
      "name": "Sketchfab_Scene",
      "nodes": [
        0
      ]
    }
  ],
  "textures": [
    {
      "sampler": 0,
      "source": 0
    },
    {
      "sampler": 0,
      "source": 1
    },
    {
      "sampler": 0,
      "source": 2
    },
    {
      "sampler": 0,
      "source": 3
    },
    {
      "sampler": 0,
      "source": 4
    }
  ]
}
